<svg xmlns="http://www.w3.org/2000/svg" viewBox="0 0 1200 300" width="1200" height="300">
  <defs>
    <linearGradient id="brandGradient" x1="0%" y1="0%" x2="100%" y2="100%">
      <stop offset="0%" stop-color="#22d3ee"/>
      <stop offset="100%" stop-color="#a855f7"/>
    </linearGradient>
    <linearGradient id="accentGradient" x1="0%" y1="0%" x2="100%" y2="0%">
      <stop offset="0%" stop-color="#a855f7"/>
      <stop offset="100%" stop-color="#ec4899"/>
    </linearGradient>
    <pattern id="scanlines" width="3" height="3" patternUnits="userSpaceOnUse">
      <rect width="3" height="1" fill="#0a0a0f" opacity="0.6"/>
    </pattern>
  </defs>

  <rect width="1200" height="300" fill="#000000"/>
  <rect width="1200" height="300" fill="url(#scanlines)"/>

  <rect x="0" y="0" width="1200" height="2" fill="url(#brandGradient)" opacity="0.4"/>

  <text x="600" y="135" font-family="'Space Grotesk', sans-serif" font-size="68" font-weight="700" text-anchor="middle" fill="url(#brandGradient)">x-platform-toolkit</text>

  <text x="600" y="180" font-family="'JetBrains Mono', monospace" font-size="16" font-weight="500" text-anchor="middle" fill="#a1a1aa" letter-spacing="0.18em">19 TOOLS  ·  X NEVER BUILT  ·  OPEN SOURCE</text>

  <text x="600" y="218" font-family="'JetBrains Mono', monospace" font-size="11" font-weight="400" text-anchor="middle" fill="#52525b" letter-spacing="0.25em">PART OF THE GROK-INSTALL FAMILY</text>

  <rect x="500" y="240" width="200" height="2" fill="url(#accentGradient)"/>

  <path d="M 30 30 L 30 60 M 30 30 L 60 30" stroke="#22d3ee" stroke-width="1.5" fill="none" opacity="0.6"/>
  <path d="M 1170 30 L 1170 60 M 1170 30 L 1140 30" stroke="#22d3ee" stroke-width="1.5" fill="none" opacity="0.6"/>
  <path d="M 30 270 L 30 240 M 30 270 L 60 270" stroke="#a855f7" stroke-width="1.5" fill="none" opacity="0.6"/>
  <path d="M 1170 270 L 1170 240 M 1170 270 L 1140 270" stroke="#a855f7" stroke-width="1.5" fill="none" opacity="0.6"/>

  <rect x="0" y="298" width="1200" height="2" fill="url(#brandGradient)" opacity="0.4"/>
</svg>
